<?xml version="1.0" encoding="utf-8"?>
<!-- Generator: Adobe Illustrator 17.0.0, SVG Export Plug-In . SVG Version: 6.00 Build 0)  -->
<!DOCTYPE svg PUBLIC "-//W3C//DTD SVG 1.1//EN" "http://www.w3.org/Graphics/SVG/1.1/DTD/svg11.dtd">
<svg version="1.1" id="Layer_1" xmlns="http://www.w3.org/2000/svg" xmlns:xlink="http://www.w3.org/1999/xlink" x="0px" y="0px"
	 width="612px" height="480px" viewBox="0 0 612 480" enable-background="new 0 0 612 480" xml:space="preserve">
<symbol  id="Arrow_7" viewBox="-8.496 -47.196 16.992 94.392">
	<polygon points="8.496,-21.836 -0.032,-47.196 -8.496,-21.836 -3.429,-21.836 -3.429,47.196 2.688,47.196 2.688,-21.836 	"/>
</symbol>
<g>
	<g>
		<path fill="none" stroke="#000000" stroke-miterlimit="10" d="M382.59,74.594c1.355-0.001,19.358,0.019,20.712,0.018
			c3.206,0,6.411,0,9.617,0.001c5.2,0.002,10.401,0.003,15.601,0.004c6.318,0.001,12.636-0.001,18.954-0.003
			c6.863-0.003,13.726-0.006,20.589-0.006c7.121,0,14.242,0.004,21.362,0.009c6.903,0.005,13.805,0.009,20.708,0.006
			c6.04-0.003,12.08-0.013,18.12-0.022c4.634-0.007,9.269-0.015,13.904,0.003c7.233,0.028,14.244-0.454,19.877,4.865
			c2.203,2.08,4.014,4.48,5.419,7.166c1.906,3.642,3.217,7.621,4.081,11.632c1.272,5.904,1.439,11.958,1.462,17.976
			c0.003,0.821,0.032,1.648,0.004,2.469c-0.191,5.668-0.229,11.346-0.304,17.016c-0.107,8.084-0.164,16.169-0.207,24.253
			c-0.057,10.608-0.087,21.216-0.101,31.824c-0.015,11.9-0.005,23.801,0.022,35.701c0.028,12.348,0.072,24.696,0.103,37.045
			c0.031,12.294,0.046,24.587,0.06,36.881c0.013,11.56,0.03,23.12,0.096,34.679c0.057,9.928,0.162,19.856,0.268,29.784
			c0.078,7.379,0.17,14.759,0.095,22.139c-0.045,4.421,0.615,8.917-0.098,13.311c-1.618,9.972-10.951,17.25-19.477,21.429
			c-2.933,1.437-6.354,2.414-9.624,2.632c-11.001,0.734-23.364,0.51-30.499,0.272"/>
		<g>
			<polygon points="516.271,422.027 514.573,425.675 516.021,429.429 507.372,425.432 			"/>
		</g>
	</g>
</g>
<path fill="#FFFFFF" stroke="#000000" stroke-miterlimit="10" d="M377.928,79.978c0,5.422-2.953,9.818-6.596,9.818H230.693
	c-3.643,0-6.596-4.396-6.596-9.818v-5.364c0-5.422,2.953-9.818,6.596-9.818h140.639c3.643,0,6.596,4.396,6.596,9.818V79.978z"/>
<g>
	<path fill="#FFFFFF" d="M500.372,420.904c0,11.17-7.629,20.226-17.039,20.226h-363.31c-9.411,0-17.039-9.055-17.039-20.226v-11.049
		c0-11.17,7.629-20.226,17.039-20.226h363.31c9.411,0,17.039,9.055,17.039,20.226V420.904z"/>
	<path fill="none" stroke="#000000" stroke-miterlimit="10" stroke-dasharray="3.0069,1.0023" d="M500.372,420.904
		c0,11.17-7.629,20.226-17.039,20.226h-363.31c-9.411,0-17.039-9.055-17.039-20.226v-11.049c0-11.17,7.629-20.226,17.039-20.226
		h363.31c9.411,0,17.039,9.055,17.039,20.226V420.904z"/>
</g>
<ellipse fill="#FFFFFF" stroke="#000000" stroke-miterlimit="10" cx="432.519" cy="405.38" rx="29.728" ry="10.417"/>
<ellipse fill="#FFFFFF" stroke="#000000" stroke-miterlimit="10" cx="367.764" cy="405.38" rx="24.475" ry="10.417"/>
<ellipse fill="#FFFFFF" stroke="#000000" stroke-miterlimit="10" cx="151.128" cy="425.407" rx="24.475" ry="10.417"/>
<ellipse fill="#FFFFFF" stroke="#000000" stroke-miterlimit="10" cx="225.401" cy="425.407" rx="33.194" ry="10.417"/>
<ellipse fill="#FFFFFF" stroke="#000000" stroke-miterlimit="10" cx="224.097" cy="404.574" rx="24.475" ry="10.417"/>
<ellipse fill="#FFFFFF" stroke="#000000" stroke-miterlimit="10" cx="169.152" cy="404.574" rx="24.475" ry="10.417"/>
<g>
	<path fill="#FFFFFF" d="M500.372,336.933c0,9.206-7.629,16.669-17.039,16.669h-363.31c-9.411,0-17.039-7.463-17.039-16.669v-9.106
		c0-9.206,7.629-16.669,17.039-16.669h363.31c9.411,0,17.039,7.463,17.039,16.669V336.933z"/>
	<path fill="none" stroke="#000000" stroke-miterlimit="10" stroke-dasharray="2.9954,0.9985" d="M500.372,336.933
		c0,9.206-7.629,16.669-17.039,16.669h-363.31c-9.411,0-17.039-7.463-17.039-16.669v-9.106c0-9.206,7.629-16.669,17.039-16.669
		h363.31c9.411,0,17.039,7.463,17.039,16.669V336.933z"/>
</g>
<ellipse fill="#FFFFFF" stroke="#000000" stroke-miterlimit="10" cx="389.928" cy="334.033" rx="104.085" ry="14.101"/>
<ellipse fill="#FFFFFF" stroke="#000000" stroke-miterlimit="10" cx="228.956" cy="335.102" rx="21.141" ry="10.417"/>
<path fill="#FFFFFF" stroke="#000000" stroke-miterlimit="10" d="M172.763,334.033c0,5.753-23.577,10.417-28.835,10.417
	c-15.925,0-28.835-4.664-28.835-10.417s12.91-10.417,28.835-10.417S172.763,328.28,172.763,334.033z"/>
<g>
	<path fill="#FFFFFF" d="M500.372,257.384c0,9.923-7.629,17.967-17.039,17.967h-363.31c-9.411,0-17.039-8.044-17.039-17.967v-9.815
		c0-9.923,7.629-17.967,17.039-17.967h363.31c9.411,0,17.039,8.044,17.039,17.967V257.384z"/>
	<path fill="none" stroke="#000000" stroke-miterlimit="10" stroke-dasharray="3.0008,1.0003" d="M500.372,257.384
		c0,9.923-7.629,17.967-17.039,17.967h-363.31c-9.411,0-17.039-8.044-17.039-17.967v-9.815c0-9.923,7.629-17.967,17.039-17.967
		h363.31c9.411,0,17.039,8.044,17.039,17.967V257.384z"/>
</g>
<ellipse fill="#FFFFFF" stroke="#000000" stroke-miterlimit="10" cx="275.871" cy="262.574" rx="12.487" ry="10.417"/>
<ellipse fill="#FFFFFF" stroke="#000000" stroke-miterlimit="10" cx="165.39" cy="259.574" rx="16.793" ry="10.417"/>
<ellipse fill="#FFFFFF" stroke="#000000" stroke-miterlimit="10" cx="195.262" cy="240.018" rx="28.835" ry="10.417"/>
<ellipse fill="#FFFFFF" stroke="#000000" stroke-miterlimit="10" cx="136.426" cy="240.018" rx="25.81" ry="10.417"/>
<path fill="#FFFFFF" stroke="#000000" stroke-miterlimit="10" d="M456.177,191.672c0,5.422-2.16,9.818-4.824,9.818h-102.85
	c-2.664,0-4.824-4.396-4.824-9.818v-5.364c0-5.422,2.16-9.818,4.824-9.818h102.85c2.664,0,4.824,4.396,4.824,9.818V191.672z"/>
<path fill="#FFFFFF" stroke="#000000" stroke-miterlimit="10" d="M281.65,191.672c0,5.422-2.16,9.818-4.824,9.818h-102.85
	c-2.664,0-4.824-4.396-4.824-9.818v-5.364c0-5.422,2.16-9.818,4.824-9.818h102.85c2.664,0,4.824,4.396,4.824,9.818V191.672z"/>
<path fill="#FFFFFF" stroke="#000000" stroke-miterlimit="10" d="M411.484,133.895c0,5.422-4.14,9.818-9.247,9.818H205.064
	c-5.107,0-9.247-4.396-9.247-9.818v-5.364c0-5.422,4.14-9.818,9.247-9.818h197.172c5.107,0,9.247,4.396,9.247,9.818V133.895z"/>
<text transform="matrix(1 0 0 1 231.7538 36.1847)" font-family="'ArialMT'" font-size="12">Bulk RNA-seq</text>
<text transform="matrix(1 0 0 1 315.6431 36.1847)" font-family="'ArialMT'" font-size="12">scRNA-seq</text>
<text transform="matrix(1 0 0 1 205.9279 133.9906)" font-family="'ArialMT'" font-size="12">Input values are count/integer values</text>
<text transform="matrix(1 0 0 1 174.817 192.9904)" font-family="'ArialMT'" font-size="12">Spike-ins included</text>
<text transform="matrix(1 0 0 1 350.4837 191.9906)" font-family="'ArialMT'" font-size="12">Spike-ins included</text>
<text transform="matrix(1 0 0 1 116.7356 244.0184)" font-family="'ArialMT'" font-size="10">RUVSeq</text>
<text transform="matrix(1 0 0 1 171.1524 244.0182)" font-family="'ArialMT'" font-size="10">Sizefactors</text>
<text transform="matrix(1 0 0 1 156.2355 262.5736)" font-family="'ArialMT'" font-size="10">glm</text>
<text transform="matrix(1 0 0 1 269.6102 265.5742)" font-family="'ArialMT'" font-size="10">CV</text>
<text transform="matrix(1 0 0 1 16.4093 332.3242)"><tspan x="0" y="0" font-family="'Arial-BoldMT'" font-size="12">Subpopulation </tspan><tspan x="0" y="14.4" font-family="'Arial-BoldMT'" font-size="12">identification</tspan></text>
<text transform="matrix(1 0 0 1 120.2061 338.0325)" font-family="'ArialMT'" font-size="12">Network</text>
<text transform="matrix(1 0 0 1 217.2656 338.1022)" font-family="'ArialMT'" font-size="12">PCA</text>
<text transform="matrix(1 0 0 1 304.0982 338.1022)" font-family="'ArialMT'" font-size="12">Iterative mean-shifted clusteirng</text>
<text transform="matrix(1 0 0 1 33.3413 415.3798)"><tspan x="0" y="0" font-family="'Arial-BoldMT'" font-size="12">Differential </tspan><tspan x="0" y="14.4" font-family="'Arial-BoldMT'" font-size="12">expression</tspan></text>
<text transform="matrix(1 0 0 1 151.1277 408.5741)" font-family="'ArialMT'" font-size="12">XBSeq</text>
<text transform="matrix(1 0 0 1 205.3225 408.574)" font-family="'ArialMT'" font-size="12">DESeq</text>
<text transform="matrix(1 0 0 1 195.7341 428.4074)" font-family="'ArialMT'" font-size="12">edgeR, etc</text>
<text transform="matrix(1 0 0 1 353.1338 409.3798)" font-family="'ArialMT'" font-size="12">limma</text>
<text transform="matrix(1 0 0 1 409.1139 408.3797)" font-family="'ArialMT'" font-size="12">monocle</text>
<text transform="matrix(1 0 0 1 136.2715 430.0464)" font-family="'ArialMT'" font-size="12">SCDE</text>
<use xlink:href="#Arrow_7"  width="16.992" height="94.392" id="XMLID_1_" x="-8.496" y="-47.196" transform="matrix(0.5355 0.5355 0.2371 -0.2371 269.9699 162.2933)" overflow="visible"/>
<use xlink:href="#Arrow_7"  width="16.992" height="94.392" id="XMLID_2_" x="-8.496" y="-47.196" transform="matrix(0.5355 -0.5355 -0.2371 -0.2371 364.1598 163.0045)" overflow="visible"/>
<text transform="matrix(1 0 0 1 239.2614 162.2934)" font-family="'ArialMT'" font-size="12">Yes</text>
<text transform="matrix(1 0 0 1 377.928 162.2934)" font-family="'ArialMT'" font-size="12">No</text>
<use xlink:href="#Arrow_7"  width="16.992" height="94.392" id="XMLID_3_" x="-8.496" y="-47.196" transform="matrix(0.7573 0 0 -0.1877 311.8097 49.4555)" overflow="visible"/>
<use xlink:href="#Arrow_7"  width="16.992" height="94.392" id="XMLID_5_" x="-8.496" y="-47.196" transform="matrix(0.5355 0.5355 0.2371 -0.2371 175.1836 217.7377)" overflow="visible"/>
<use xlink:href="#Arrow_7"  width="16.992" height="94.392" id="XMLID_4_" x="-8.496" y="-47.196" transform="matrix(0.5355 -0.5355 -0.2371 -0.2371 268.3735 216.4489)" overflow="visible"/>
<use xlink:href="#Arrow_7"  width="16.992" height="94.392" id="XMLID_7_" x="-8.496" y="-47.196" transform="matrix(0.5355 0.5355 0.2371 -0.2371 352.0255 216.2919)" overflow="visible"/>
<use xlink:href="#Arrow_7"  width="16.992" height="94.392" id="XMLID_6_" x="-8.496" y="-47.196" transform="matrix(0.5355 -0.5355 -0.2371 -0.2371 446.2154 217.0031)" overflow="visible"/>
<ellipse fill="#FFFFFF" stroke="#000000" stroke-miterlimit="10" cx="275.871" cy="240.018" rx="30.416" ry="10.417"/>
<text transform="matrix(1 0 0 1 251.1814 244.0182)" font-family="'ArialMT'" font-size="10">Sizefactors</text>
<ellipse fill="#FFFFFF" stroke="#000000" stroke-miterlimit="10" cx="365.797" cy="261.935" rx="16.793" ry="10.417"/>
<ellipse fill="#FFFFFF" stroke="#000000" stroke-miterlimit="10" cx="390.492" cy="242.379" rx="23.658" ry="10.417"/>
<ellipse fill="#FFFFFF" stroke="#000000" stroke-miterlimit="10" cx="336.833" cy="242.379" rx="25.81" ry="10.417"/>
<text transform="matrix(1 0 0 1 317.1425 246.3794)" font-family="'ArialMT'" font-size="10">RUVSeq</text>
<text transform="matrix(1 0 0 1 371.5593 246.3792)" font-family="'ArialMT'" font-size="10">Quantile</text>
<text transform="matrix(1 0 0 1 356.6424 264.9347)" font-family="'ArialMT'" font-size="10">glm</text>
<ellipse fill="#FFFFFF" stroke="#000000" stroke-miterlimit="10" cx="456.177" cy="264.935" rx="12.487" ry="10.417"/>
<text transform="matrix(1 0 0 1 449.9158 267.9352)" font-family="'ArialMT'" font-size="10">CV</text>
<ellipse fill="#FFFFFF" stroke="#000000" stroke-miterlimit="10" cx="456.177" cy="242.379" rx="23.658" ry="10.417"/>
<text transform="matrix(1 0 0 1 437.2444 246.3792)" font-family="'ArialMT'" font-size="10">Quantile</text>
<use xlink:href="#Arrow_7"  width="16.992" height="94.392" id="XMLID_9_" x="-8.496" y="-47.196" transform="matrix(0.7573 0 0 -0.2811 288.3584 292.9468)" overflow="visible"/>
<text transform="matrix(1 0 0 1 27.3415 251.518)"><tspan x="0" y="0" font-family="'Arial-BoldMT'" font-size="10">Highly variable </tspan><tspan x="0" y="12" font-family="'Arial-BoldMT'" font-size="10">genes (HVGs)</tspan></text>
<use xlink:href="#Arrow_7"  width="16.992" height="94.392" id="XMLID_13_" x="-8.496" y="-47.196" transform="matrix(0.5355 -0.5355 -0.1988 -0.1988 183.1102 374.1581)" overflow="visible"/>
<use xlink:href="#Arrow_7"  width="16.992" height="94.392" id="XMLID_12_" x="-8.496" y="-47.196" transform="matrix(0.5355 0.5355 0.1988 -0.1988 228.2449 374.3736)" overflow="visible"/>
<use xlink:href="#Arrow_7"  width="16.992" height="94.392" id="XMLID_15_" x="-8.496" y="-47.196" transform="matrix(0.5355 -0.5355 -0.1988 -0.1988 383.5171 374.158)" overflow="visible"/>
<use xlink:href="#Arrow_7"  width="16.992" height="94.392" id="XMLID_14_" x="-8.496" y="-47.196" transform="matrix(0.5355 0.5355 0.1988 -0.1988 424.4392 375.3004)" overflow="visible"/>
<use xlink:href="#Arrow_7"  width="16.992" height="94.392" id="XMLID_16_" x="-8.496" y="-47.196" transform="matrix(-1.020040e-10 -0.7573 -0.2811 3.785900e-11 190.9216 335.0327)" overflow="visible"/>
<use xlink:href="#Arrow_7"  width="16.992" height="94.392" id="XMLID_17_" x="-8.496" y="-47.196" transform="matrix(-1.020040e-10 -0.7573 -0.2811 3.785900e-11 268.9697 335.1023)" overflow="visible"/>
<text transform="matrix(1 0 0 1 228.2449 79.2963)" font-family="'ArialMT'" font-size="10">Experimental design is specified</text>
<use xlink:href="#Arrow_7"  width="16.992" height="94.392" id="XMLID_8_" x="-8.496" y="-47.196" transform="matrix(0.7573 0 0 -0.1877 304.6503 102.6549)" overflow="visible"/>
<text transform="matrix(1 0 0 1 314.244 103.655)" font-family="'ArialMT'" font-size="10">No</text>
<path fill="none" d="M377.928,74.614"/>
<text transform="matrix(1 0 0 1 417.9158 70.3144)" font-family="'ArialMT'" font-size="10">Yes</text>
<ellipse fill="#FFFFFF" stroke="#000000" stroke-miterlimit="10" cx="275.871" cy="402.963" rx="24.475" ry="10.417"/>
<text transform="matrix(1 0 0 1 261.0153 407.6021)" font-family="'ArialMT'" font-size="12">MAST</text>
<ellipse fill="#FFFFFF" stroke="#000000" stroke-miterlimit="10" cx="285.708" cy="428.407" rx="24.475" ry="10.417"/>
<text transform="matrix(1 0 0 1 270.8521 433.0464)" font-family="'ArialMT'" font-size="12">BPSC</text>
<path fill="#FFFFFF" stroke="#000000" stroke-miterlimit="10" d="M353.197,428.407c0-5.753,10.958-10.417,24.475-10.417
	c13.517,0,24.475,4.664,24.475,10.417s-10.958,10.417-24.475,10.417C364.155,438.824,353.197,434.16,353.197,428.407"/>
<text transform="matrix(1 0 0 1 362.8158 433.0464)" font-family="'ArialMT'" font-size="12">MAST</text>
<path fill="#FFFFFF" stroke="#000000" stroke-miterlimit="10" d="M408.044,428.407c0-5.753,10.958-10.417,24.475-10.417
	s24.475,4.664,24.475,10.417s-10.958,10.417-24.475,10.417S408.044,434.16,408.044,428.407"/>
<text transform="matrix(1 0 0 1 417.6625 433.0464)" font-family="'ArialMT'" font-size="12">BPSC</text>
<text transform="matrix(1 0 0 1 151.1275 216.2921)" font-family="'ArialMT'" font-size="12">Yes</text>
<text transform="matrix(1 0 0 1 330.2614 216.2921)" font-family="'ArialMT'" font-size="12">Yes</text>
<text transform="matrix(1 0 0 1 270.8524 216.2921)" font-family="'ArialMT'" font-size="12">No</text>
<text transform="matrix(1 0 0 1 449.9161 216.2921)" font-family="'ArialMT'" font-size="12">No</text>
</svg>
